<?xml version="1.0" encoding="UTF-8" standalone="no"?><!DOCTYPE svg PUBLIC "-//W3C//DTD SVG 1.1//EN" "http://www.w3.org/Graphics/SVG/1.1/DTD/svg11.dtd"><svg width="100%" height="100%" viewBox="0 0 2953 1772" version="1.1" xmlns="http://www.w3.org/2000/svg" xmlns:xlink="http://www.w3.org/1999/xlink" xml:space="preserve" xmlns:serif="http://www.serif.com/" style="fill-rule:evenodd;clip-rule:evenodd;stroke-linecap:round;stroke-linejoin:round;stroke-miterlimit:1.5;"><g><rect x="0" y="1056.8" width="1325.83" height="714.852" style="fill:#e64a19;"/><text x="136.942px" y="1725.99px" style="font-family:'Ayuthaya';font-size:116.667px;">librascaline.so</text><rect x="0" y="1056.8" width="1182" height="524.248" style="fill:#42a5f5;"/><text x="66.388px" y="1317.35px" style="font-family:'Ayuthaya';font-size:116.667px;">rascaline-c-api</text></g><g><rect x="289.785" y="591.518" width="812.722" height="294.309" style="fill:#607d8b;"/><text x="415.535px" y="772.283px" style="font-family:'Ayuthaya';font-size:116.667px;">cbindgen</text></g><g><rect x="994.742" y="154.131" width="963.272" height="195.349" style="fill:#fff176;"/><text x="1088.32px" y="297.333px" style="font-family:'Ayuthaya';font-size:116.667px;">rascaline.h</text></g><g><rect x="1873.9" y="591.518" width="812.722" height="294.309" style="fill:#90a4ae;"/><text x="1965.23px" y="758.089px" style="font-family:'Ayuthaya';font-size:116.667px;">pycparser</text></g><g><rect x="1626.93" y="1056.8" width="1325.83" height="714.852" style="fill:#4caf50;"/><g transform="matrix(1,0,0,1,1156.96,990.382)"><text x="822.886px" y="517.568px" style="font-family:'Ayuthaya';font-size:116.667px;">rascaline</text><text x="683.247px" y="634.234px" style="font-family:'Ayuthaya';font-size:116.667px;">Python module</text></g></g><g><rect x="1765.88" y="1117.5" width="1047.93" height="195.349" style="fill:#fff176;"/><text x="1833.73px" y="1248.76px" style="font-family:'Ayuthaya';font-size:116.667px;">_rascaline.py</text></g><path d="M2650.44,993.454l28.956,107.989l69.017,-87.958c-29.501,19.485 -78.487,9.47 -97.973,-20.031Z"/><path d="M2695.42,1023.06c18.13,-274.858 -267.33,-779.561 -708.609,-768.826" style="fill:none;stroke:#000;stroke-width:8.33px;stroke-dasharray:16.67,33.33,0,0;stroke-dashoffset:16.67;"/><g><path d="M2287.74,175.764l-50,25l50,25c-12.5,-12.5 -12.5,-37.5 0,-50Z"/><path d="M2277.74,200.764l190.359,0" style="fill:none;stroke:#000;stroke-width:8.33px;stroke-dasharray:16.67,33.33,0,0;stroke-dashoffset:16.67;"/><path d="M2287.74,80.472l-50,-25l50,-25c-12.5,12.5 -12.5,37.5 0,50Z"/><path d="M2468.1,55.472l-190.359,0" style="fill:none;stroke:#000;stroke-width:16.67px;"/><text x="2490.93px" y="77.675px" style="font-family:'Ayuthaya';font-size:83.333px;">calls</text><text x="2492.95px" y="211.28px" style="font-family:'Ayuthaya';font-size:83.333px;">generates</text></g><path d="M885.26,208.344l101.95,45.894l-97.885,54.024c23.963,-25.996 21.931,-75.955 -4.065,-99.918Z"/><path d="M289.785,1101.44c-45.1,-282.958 181.703,-797.114 617.491,-843.953" style="fill:none;stroke:#000;stroke-width:8.33px;stroke-dasharray:16.67,33.33,0,0;"/><path d="M1158.06,1494.13l-100,-50l100,-50c-25,25 -25,75 0,100Z"/><path d="M1732.67,1444.13l-594.612,0" style="fill:none;stroke:#000;stroke-width:33.33px;"/></svg>