<?xml version="1.0" encoding="UTF-8" standalone="no"?>
<!DOCTYPE svg PUBLIC "-//W3C//DTD SVG 1.1//EN" "http://www.w3.org/Graphics/SVG/1.1/DTD/svg11.dtd">
<svg width="100%" height="100%" viewBox="0 0 2953 1772" version="1.1" xmlns="http://www.w3.org/2000/svg" xmlns:xlink="http://www.w3.org/1999/xlink" xml:space="preserve" xmlns:serif="http://www.serif.com/" style="fill-rule:evenodd;clip-rule:evenodd;stroke-linecap:round;stroke-linejoin:round;stroke-miterlimit:1.5;">
    <g>
        <rect x="0" y="1056.8" width="1325.83" height="714.852" style="fill:rgb(230,74,25);"/>
        <g transform="matrix(1,0,0,1,136.942,1725.99)">
            <text x="0px" y="0px" style="font-family:'Ayuthaya';font-size:116.667px;">libfeatomic.so</text>
        </g>
        <rect x="0" y="1056.8" width="1182" height="524.248" style="fill:rgb(66,165,245);"/>
        <g transform="matrix(1,0,0,1,66.388,1317.35)">
            <text x="0px" y="0px" style="font-family:'Ayuthaya';font-size:116.667px;">featomic-c-api</text>
        </g>
    </g>
    <g>
        <rect x="289.785" y="591.518" width="812.722" height="294.309" style="fill:rgb(96,125,139);"/>
        <g transform="matrix(1,0,0,1,415.535,772.283)">
            <text x="0px" y="0px" style="font-family:'Ayuthaya';font-size:116.667px;">cbindgen</text>
        </g>
    </g>
    <g>
        <rect x="994.742" y="154.131" width="963.272" height="195.349" style="fill:rgb(255,241,118);"/>
        <g transform="matrix(1,0,0,1,1088.32,297.333)">
            <text x="0px" y="0px" style="font-family:'Ayuthaya';font-size:116.667px;">featomic.h</text>
        </g>
    </g>
    <g>
        <rect x="1873.9" y="591.518" width="812.722" height="294.309" style="fill:rgb(144,164,174);"/>
        <g transform="matrix(1,0,0,1,1965.23,758.089)">
            <text x="0px" y="0px" style="font-family:'Ayuthaya';font-size:116.667px;">pycparser</text>
        </g>
    </g>
    <g>
        <rect x="1626.93" y="1056.8" width="1325.83" height="714.852" style="fill:rgb(76,175,80);"/>
        <g transform="matrix(1,0,0,1,1156.96,990.382)">
            <g transform="matrix(1,0,0,1,822.886,517.568)">
                <text x="0px" y="0px" style="font-family:'Ayuthaya';font-size:116.667px;">featomic</text>
            </g>
            <g transform="matrix(1,0,0,1,683.247,634.234)">
                <text x="0px" y="0px" style="font-family:'Ayuthaya';font-size:116.667px;">Python module</text>
            </g>
        </g>
    </g>
    <g transform="matrix(1,0,0,1,192.134,4.67538)">
        <g transform="matrix(0.727325,0,0,1,481.511,0)">
            <rect x="1765.88" y="1117.5" width="1047.93" height="195.349" style="fill:rgb(255,241,118);"/>
        </g>
        <g transform="matrix(1,0,0,1,1833.73,1248.76)">
            <text x="0px" y="0px" style="font-family:'Ayuthaya';font-size:116.667px;">_c_api.py</text>
        </g>
    </g>
    <path d="M2650.44,993.454L2679.4,1101.44L2748.41,1013.49C2718.91,1032.97 2669.93,1022.96 2650.44,993.454Z"/>
    <path d="M2695.42,1023.06C2713.55,748.202 2428.09,243.499 1986.81,254.234" style="fill:none;stroke:black;stroke-width:8.33px;stroke-dasharray:16.67,33.33,0,0;stroke-dashoffset:16.67;"/>
    <g>
        <path d="M2287.74,175.764L2237.74,200.764L2287.74,225.764C2275.24,213.264 2275.24,188.264 2287.74,175.764Z"/>
        <path d="M2277.74,200.764L2468.1,200.764" style="fill:none;stroke:black;stroke-width:8.33px;stroke-dasharray:16.67,33.33,0,0;stroke-dashoffset:16.67;"/>
        <path d="M2287.74,80.472L2237.74,55.472L2287.74,30.472C2275.24,42.972 2275.24,67.972 2287.74,80.472Z"/>
        <path d="M2468.1,55.472L2277.74,55.472" style="fill:none;stroke:black;stroke-width:16.67px;"/>
        <g transform="matrix(1,0,0,1,2490.93,77.675)">
            <text x="0px" y="0px" style="font-family:'Ayuthaya';font-size:83.333px;">calls</text>
        </g>
        <g transform="matrix(1,0,0,1,2492.95,211.28)">
            <text x="0px" y="0px" style="font-family:'Ayuthaya';font-size:83.333px;">generates</text>
        </g>
    </g>
    <path d="M885.26,208.344L987.21,254.238L889.325,308.262C913.288,282.266 911.256,232.307 885.26,208.344Z"/>
    <path d="M289.785,1101.44C244.685,818.482 471.488,304.326 907.276,257.487" style="fill:none;stroke:black;stroke-width:8.33px;stroke-dasharray:16.67,33.33,0,0;"/>
    <path d="M1158.06,1494.13L1058.06,1444.13L1158.06,1394.13C1133.06,1419.13 1133.06,1469.13 1158.06,1494.13Z"/>
    <path d="M1732.67,1444.13L1138.06,1444.13" style="fill:none;stroke:black;stroke-width:33.33px;"/>
</svg>
