<?xml version="1.0" encoding="UTF-8" standalone="no"?><!DOCTYPE svg PUBLIC "-//W3C//DTD SVG 1.1//EN" "http://www.w3.org/Graphics/SVG/1.1/DTD/svg11.dtd"><svg width="100%" height="100%" viewBox="0 0 1654 1182" version="1.1" xmlns="http://www.w3.org/2000/svg" xmlns:xlink="http://www.w3.org/1999/xlink" xml:space="preserve" xmlns:serif="http://www.serif.com/" style="fill-rule:evenodd;clip-rule:evenodd;stroke-linecap:square;stroke-linejoin:round;stroke-miterlimit:1.5;"><g><g><rect x="301.625" y="220.411" width="472.441" height="767.514" style="fill:#76b5a8;"/><text x="416.899px" y="374.167px" style="font-family:'AdobeDevanagari-Regular', 'Adobe Devanagari', serif;font-size:100px;">V<tspan x="473.197px 514.067px 536.43px " y="374.167px 374.167px 374.167px ">alu</tspan>es</text></g><g><rect x="301.625" y="15.809" width="472.441" height="177.165" style="fill:#cf8a7c;"/><g transform="matrix(6.12323e-17,-1,1,6.12323e-17,-626.582,588.598)"><text x="406.447px" y="980.654px" style="font-family:'AdobeDevanagari-Bold', 'Adobe Devanagari', serif;font-weight:700;font-size:50px;">F<tspan x="430.739px 451.027px 471.364px 485.793px 510.891px 528.542px " y="980.654px 980.654px 980.654px 980.654px 980.654px 980.654px ">eature</tspan>s</text></g><text x="615.361px" y="108.348px" style="font-family:'Helvetica';font-size:36.827px;">…</text><g transform="matrix(1.1048,0,0,1.1048,437.617,-899.259)"><text x="73.987px" y="867.019px" style="font-family:'Helvetica';font-size:33.333px;">2</text><text x="73.987px" y="919.819px" style="font-family:'Helvetica';font-size:33.333px;">4</text><text x="68.437px" y="972.619px" style="font-family:'Helvetica';font-size:33.333px;">-3</text></g><g transform="matrix(1.1048,0,0,1.1048,331.004,-901.983)"><text x="73.987px" y="867.019px" style="font-family:'Helvetica';font-size:33.333px;">n</text><text x="79.553px" y="919.819px" style="font-family:'Helvetica';font-size:33.333px;">l</text><text x="69.372px" y="972.619px" style="font-family:'Helvetica';font-size:33.333px;">m</text></g><g transform="matrix(1.1048,0,0,1.1048,599.372,-899.259)"><text x="73.987px" y="867.019px" style="font-family:'Helvetica';font-size:33.333px;">8</text><text x="73.987px" y="919.819px" style="font-family:'Helvetica';font-size:33.333px;">2</text><text x="73.987px" y="972.619px" style="font-family:'Helvetica';font-size:33.333px;">1</text></g><g transform="matrix(1.1048,0,0,1.1048,491.542,-899.259)"><text x="73.987px" y="867.019px" style="font-family:'Helvetica';font-size:33.333px;">2</text><text x="73.987px" y="919.819px" style="font-family:'Helvetica';font-size:33.333px;">4</text><text x="73.987px" y="972.619px" style="font-family:'Helvetica';font-size:33.333px;">2</text></g></g><g><rect x="24.472" y="220.411" width="236.22" height="767.514" style="fill:#748fae;"/><text x="64.201px" y="268.889px" style="font-family:'AdobeDevanagari-Bold', 'Adobe Devanagari', serif;font-weight:700;font-size:50px;">S<tspan x="87.15px 108px 145.793px 170.304px " y="268.889px 268.889px 268.889px 268.889px ">ampl</tspan>es</text><text x="55.258px" y="656.785px" style="font-family:'Helvetica';font-size:36.827px;">3   4   8   2</text><g transform="matrix(6.12323e-17,-1,1,6.12323e-17,-1557.41,-208.448)"><text x="-807.32px" y="1632.37px" style="font-family:'Helvetica';font-size:36.827px;">structure</text></g><g transform="matrix(6.12323e-17,-1,1,6.12323e-17,-1452.72,-104.192)"><text x="-702.845px" y="1632.15px" style="font-family:'Helvetica';font-size:36.827px;">center species</text></g><g transform="matrix(6.76497e-17,-1.1048,1.1048,6.76497e-17,-830.236,674.263)"><text x="68.437px" y="867.019px" style="font-family:'Helvetica';font-size:33.333px;">central at</text><text x="205.546px" y="867.019px" style="font-family:'Helvetica';font-size:33.333px;">o</text><text x="223.751px" y="867.019px" style="font-family:'Helvetica';font-size:33.333px;">m</text></g><g transform="matrix(6.12323e-17,-1,1,6.12323e-17,-1405.45,-56.9271)"><text x="-655.581px" y="1632.15px" style="font-family:'Helvetica';font-size:36.827px;">neighbor species</text></g><text x="55.258px" y="699.612px" style="font-family:'Helvetica';font-size:36.827px;">3   5   9   1</text><text x="54.952px" y="793.765px" style="font-family:'Helvetica';font-size:36.827px;">8   0   1   2</text><g transform="matrix(6.12323e-17,-1,1,6.12323e-17,-1640.28,12.3378)"><text x="-738.36px" y="1784.19px" style="font-family:'Helvetica';font-size:36.827px;">…</text></g></g></g><g><g><rect x="878.755" y="220.411" width="236.22" height="944.882" style="fill:#a9c3de;"/><g transform="matrix(1,0,0,1,471.231,-104.176)"><text x="447.436px" y="373.065px" style="font-family:'AdobeDevanagari-Bold', 'Adobe Devanagari', serif;font-weight:700;font-size:50px;">S<tspan x="470.385px 491.235px 529.028px 553.54px " y="373.065px 373.065px 373.065px 373.065px ">ampl</tspan>es</text><text x="423.108px" y="440.862px" style="font-family:'AdobeDevanagari-Bold', 'Adobe Devanagari', serif;font-weight:700;font-size:50px;">der<tspan x="486.242px 499.206px 520.715px 541.052px 556.042px 569.006px 590.32px " y="440.862px 440.862px 440.862px 440.862px 440.862px 440.862px 440.862px ">ivative</tspan>s</text></g></g><g><rect x="1156.63" y="220.411" width="472.441" height="944.882" style="fill:#a0d3bf;"/><text x="1209.43px" y="373.776px" style="font-family:'AdobeDevanagari-Regular', 'Adobe Devanagari', serif;font-size:100px;">G<tspan x="1274.76px " y="373.776px ">r</tspan>adien<tspan x="1512.55px " y="373.776px ">t</tspan>s</text></g><path d="M839.441,129.392l-50,-25l50,-25c-12.5,12.5 -12.5,37.5 0,50Z"/><path d="M1140.26,104.392l-310.823,0" style="fill:none;stroke:#000;stroke-width:4.17px;stroke-dasharray:16.67,12.5,0,0;stroke-dashoffset:8.33;"/><g><rect x="1156.63" y="15.809" width="472.441" height="177.165" style="fill:#cf8a7c;fill-opacity:0.51;stroke:#000;stroke-width:4.17px;stroke-linecap:round;stroke-dasharray:16.67,12.5,0,0;"/><g transform="matrix(6.12323e-17,-1,1,6.12323e-17,228.423,1443.6)"><text x="1261.45px" y="980.654px" style="font-family:'AdobeDevanagari-Bold', 'Adobe Devanagari', serif;font-weight:700;font-size:50px;fill-opacity:0.51;">F<tspan x="1285.74px 1306.03px 1326.37px 1340.8px 1365.9px 1383.55px " y="980.654px 980.654px 980.654px 980.654px 980.654px 980.654px ">eature</tspan>s</text></g><text x="1488.26px" y="108.348px" style="font-family:'Helvetica';font-size:36.827px;fill-opacity:0.51;">…</text><g transform="matrix(1.1048,0,0,1.1048,1310.51,-899.259)"><text x="73.987px" y="867.019px" style="font-family:'Helvetica';font-size:33.333px;fill-opacity:0.51;">2</text><text x="73.987px" y="919.819px" style="font-family:'Helvetica';font-size:33.333px;fill-opacity:0.51;">4</text><text x="68.437px" y="972.619px" style="font-family:'Helvetica';font-size:33.333px;fill-opacity:0.51;">-3</text></g><g transform="matrix(1.1048,0,0,1.1048,1203.9,-901.983)"><text x="73.987px" y="867.019px" style="font-family:'Helvetica';font-size:33.333px;fill-opacity:0.51;">n</text><text x="79.553px" y="919.819px" style="font-family:'Helvetica';font-size:33.333px;fill-opacity:0.51;">l</text><text x="69.372px" y="972.619px" style="font-family:'Helvetica';font-size:33.333px;fill-opacity:0.51;">m</text></g><g transform="matrix(1.1048,0,0,1.1048,1472.27,-899.259)"><text x="73.987px" y="867.019px" style="font-family:'Helvetica';font-size:33.333px;fill-opacity:0.51;">8</text><text x="73.987px" y="919.819px" style="font-family:'Helvetica';font-size:33.333px;fill-opacity:0.51;">2</text><text x="73.987px" y="972.619px" style="font-family:'Helvetica';font-size:33.333px;fill-opacity:0.51;">1</text></g><g transform="matrix(1.1048,0,0,1.1048,1364.44,-899.259)"><text x="73.987px" y="867.019px" style="font-family:'Helvetica';font-size:33.333px;fill-opacity:0.51;">2</text><text x="73.987px" y="919.819px" style="font-family:'Helvetica';font-size:33.333px;fill-opacity:0.51;">4</text><text x="73.987px" y="972.619px" style="font-family:'Helvetica';font-size:33.333px;fill-opacity:0.51;">2</text></g></g></g></svg>